<svg id="Layer_1" data-name="Layer 1" xmlns="http://www.w3.org/2000/svg" viewBox="0 0 226.77 106.98"><defs><style>.cls-1{fill:#878787}.cls-6{fill:#0698d6}</style></defs><path class="cls-1" d="M73.7 70.71a1.89 1.89 0 01-.79-.16 1.84 1.84 0 01-.62-.44 1.87 1.87 0 01-.42-.66 2.32 2.32 0 010-1.64 1.93 1.93 0 01.42-.63 1.89 1.89 0 01.62-.4 2.26 2.26 0 01.79-.14h2.21v.71H73.7a1.25 1.25 0 00-.51.1 1.09 1.09 0 00-.4.27 1.15 1.15 0 00-.26.41 1.51 1.51 0 00-.1.53 1.57 1.57 0 00.1.54 1.29 1.29 0 00.26.42 1.26 1.26 0 00.4.28 1.45 1.45 0 00.51.1h2.21v.71zM80.21 70.71a1.85 1.85 0 01-.78-.16 2 2 0 01-.63-.44 1.87 1.87 0 01-.42-.66 2.47 2.47 0 010-1.64 1.93 1.93 0 01.42-.63 2.05 2.05 0 01.63-.4 2.21 2.21 0 01.78-.14h1a2.29 2.29 0 01.81.14 1.86 1.86 0 01.63.41 1.91 1.91 0 01.41.63 2.29 2.29 0 010 1.63 1.87 1.87 0 01-.42.66 1.79 1.79 0 01-.63.44 1.87 1.87 0 01-.8.16zm1-.71a1.46 1.46 0 00.52-.1 1.2 1.2 0 00.67-.7 1.57 1.57 0 00.1-.54 1.46 1.46 0 00-.1-.52 1.11 1.11 0 00-.26-.42 1.13 1.13 0 00-.41-.27 1.27 1.27 0 00-.52-.1h-1a1.18 1.18 0 00-.5.1 1 1 0 00-.4.27 1.17 1.17 0 00-.27.41 1.51 1.51 0 00-.09.53 1.57 1.57 0 00.09.54 1.32 1.32 0 00.27.42 1.15 1.15 0 00.4.28 1.35 1.35 0 00.5.1zM89.42 70.71l-1-1.13h-1.55V69h1.7a.75.75 0 00.58-.21.86.86 0 00.2-.61.77.77 0 00-.21-.59.79.79 0 00-.57-.19h-2.22v3.36h-.71v-4.12h2.93a1.72 1.72 0 01.62.1 1.23 1.23 0 01.46.3 1.27 1.27 0 01.3.47 1.9 1.9 0 01.1.61 1.55 1.55 0 01-.23.86 1.19 1.19 0 01-.61.49l1.22 1.24zM93.9 69.58v-.69h1.63a.8.8 0 00.59-.21.78.78 0 00.21-.56.73.73 0 00-.21-.56.8.8 0 00-.59-.21h-2.15v3.36h-.71v-4.07h2.86a1.74 1.74 0 01.63.1 1.29 1.29 0 01.47.29 1.16 1.16 0 01.29.46 1.64 1.64 0 01.1.6 1.74 1.74 0 01-.1.61 1.16 1.16 0 01-.29.46 1.21 1.21 0 01-.47.31 1.73 1.73 0 01-.63.11zM101.26 70.71a1.86 1.86 0 01-.79-.16 1.92 1.92 0 01-1-1.1 2.32 2.32 0 010-1.64 2.08 2.08 0 01.41-.63 2.05 2.05 0 01.63-.4 2.22 2.22 0 01.79-.14h1a2.38 2.38 0 01.81.14 1.82 1.82 0 011 1 2.38 2.38 0 01.14.81 2.18 2.18 0 01-.15.82 1.85 1.85 0 01-.41.66 2 2 0 01-.63.44 1.91 1.91 0 01-.8.16zm1-.71a1.4 1.4 0 00.51-.1 1.2 1.2 0 00.41-.28 1.51 1.51 0 00.27-.42 1.57 1.57 0 00.09-.54 1.46 1.46 0 00-.09-.52 1.27 1.27 0 00-.27-.42 1 1 0 00-.41-.27 1.22 1.22 0 00-.51-.1h-1a1.22 1.22 0 00-.51.1 1.09 1.09 0 00-.4.27 1.15 1.15 0 00-.26.41 1.32 1.32 0 00-.1.53 1.37 1.37 0 00.1.54 1.29 1.29 0 00.26.42 1.26 1.26 0 00.4.28 1.4 1.4 0 00.51.1zM110.47 70.71l-1-1.13h-1.52V69h1.69a.79.79 0 00.59-.21.86.86 0 00.19-.61.69.69 0 00-.78-.78h-2.24v3.36h-.71v-4.12h2.92a1.72 1.72 0 01.62.1 1.27 1.27 0 01.47.3 1.25 1.25 0 01.29.47 1.66 1.66 0 01.1.61 1.55 1.55 0 01-.22.86 1.21 1.21 0 01-.62.49l1.23 1.24zM118 70.71l-.61-1h-1.92l.33-.57h1.2l-.91-1.53-1.84 3.13h-.82l2.34-3.9a.5.5 0 01.15-.17.34.34 0 01.2-.06.32.32 0 01.2.06.61.61 0 01.14.17l2.35 3.9zM121.71 70.71v-3.36h-1.55v-.71H124v.71h-1.55v3.36zM126.31 70.71v-4.07h3.63v.71H127V70h3v.71zm1.22-1.77v-.6h2.26v.6zM137.8 70.71a1.85 1.85 0 01-.78-.16 2 2 0 01-.63-.44 1.72 1.72 0 01-.41-.66 2.32 2.32 0 010-1.64 1.76 1.76 0 01.41-.63 2.05 2.05 0 01.63-.4 2.21 2.21 0 01.78-.14h2.2v.71h-2.2a1.18 1.18 0 00-.5.1 1 1 0 00-.4.27 1.17 1.17 0 00-.27.41 1.51 1.51 0 00-.09.53 1.57 1.57 0 00.09.54 1.32 1.32 0 00.27.42 1.15 1.15 0 00.4.28 1.35 1.35 0 00.5.1h1.75v-1.06h-1.84v-.6h2.55v2.37zM144.65 70.71a1.86 1.86 0 01-.79-.16 2 2 0 01-.63-.44 1.85 1.85 0 01-.41-.66 2.32 2.32 0 010-1.64 1.91 1.91 0 01.41-.63 2.05 2.05 0 01.63-.4 2.22 2.22 0 01.79-.14h1a2.38 2.38 0 01.81.14 1.82 1.82 0 011 1 2.38 2.38 0 01.14.81 2.18 2.18 0 01-.15.82 1.85 1.85 0 01-.41.66 2 2 0 01-.63.44 1.91 1.91 0 01-.8.16zm1-.71a1.4 1.4 0 00.51-.1 1.2 1.2 0 00.67-.7 1.37 1.37 0 00.1-.54 1.27 1.27 0 00-.1-.52 1.11 1.11 0 00-.26-.42 1.13 1.13 0 00-.41-.27 1.22 1.22 0 00-.51-.1h-1a1.19 1.19 0 00-.51.1 1 1 0 00-.4.27 1.15 1.15 0 00-.26.41 1.32 1.32 0 00-.1.53 1.37 1.37 0 00.1.54 1.29 1.29 0 00.26.42 1.15 1.15 0 00.4.28 1.36 1.36 0 00.51.1zM149.26 66.64h.87l1.87 3.13 1.84-3.13h.82l-2.35 3.9a.46.46 0 01-.15.16.32.32 0 01-.19.07.32.32 0 01-.2-.07.46.46 0 01-.15-.16zM156.94 70.71v-4.07h3.64v.71h-2.93V70h2.93v.71zm1.23-1.77v-.6h2.26v.6zM166.84 70.71l-1-1.13h-1.52V69H166a.75.75 0 00.58-.21.86.86 0 00.2-.61.77.77 0 00-.21-.59.79.79 0 00-.57-.19h-2.22v3.36h-.7v-4.12H166a1.72 1.72 0 01.62.1 1.23 1.23 0 01.46.3 1.27 1.27 0 01.3.47 1.9 1.9 0 01.1.61 1.64 1.64 0 01-.22.86 1.25 1.25 0 01-.62.49l1.22 1.24zM170.75 67.73v3h-.67V67a.5.5 0 01.09-.31.37.37 0 01.27-.11.4.4 0 01.15 0 .48.48 0 01.15.11l2.88 2.85v-3h.67v3.73a.51.51 0 01-.09.32.35.35 0 01-.26.11.44.44 0 01-.32-.15zM181.1 70.71l-.61-1h-1.93l.34-.57h1.24l-.9-1.53-1.85 3.13h-.81l2.34-3.9a.61.61 0 01.14-.17.37.37 0 01.21-.06.31.31 0 01.19.06.5.5 0 01.15.17l2.34 3.9zM184.92 67.73v3h-.68V67a.5.5 0 01.1-.31.37.37 0 01.27-.11.4.4 0 01.15 0 .48.48 0 01.15.11l2.87 2.85v-3h.68v3.73a.46.46 0 01-.1.32.33.33 0 01-.25.11.46.46 0 01-.33-.15zM192.88 70.71a1.89 1.89 0 01-.79-.16 1.84 1.84 0 01-.62-.44 1.87 1.87 0 01-.42-.66 2.32 2.32 0 010-1.64 1.93 1.93 0 01.42-.63 1.89 1.89 0 01.62-.4 2.26 2.26 0 01.79-.14h2.21v.71h-2.21a1.25 1.25 0 00-.51.1 1.09 1.09 0 00-.4.27 1.15 1.15 0 00-.26.41 1.51 1.51 0 00-.1.53 1.57 1.57 0 00.1.54 1.29 1.29 0 00.26.42 1.26 1.26 0 00.4.28 1.45 1.45 0 00.51.1h2.21v.71zM197.53 70.71v-4.07h3.64v.71h-2.93V70h2.93v.71zm1.23-1.77v-.6H201v.6z"/><path d="M41.56 51.33l-14-6.61c-1.81-.82-3.28 0-3.28 1.8V58c0 1.81.47 3.34 2.28 4.16l15 7.6" stroke="#878787" fill="none" stroke-linecap="round" stroke-miterlimit="10" stroke-width="2"/><path d="M60.88 44.89v13.73c0 1.81-.33 3.29-2.15 4.46l-10.61 6c-1.81 1.17-3.28.65-3.28-1.17V53" stroke="#78b82a" fill="none" stroke-linecap="round" stroke-miterlimit="10" stroke-width="2"/><path d="M39.91 33.5l-12.55 5.66a.84.84 0 000 1.66l16.2 7.54a2.07 2.07 0 001.53 0L58.81 42c1.26-.56 1.13-1.83-.24-2.26L44.86 34.4" stroke="#f29e00" fill="none" stroke-linecap="round" stroke-miterlimit="10" stroke-width="2"/><path fill="#f29e00" d="M36.65 32.21l4.73.26.65 2.69-5.38-2.95z"/><path class="cls-6" d="M97.51 58.28H78.07A3.33 3.33 0 0174.76 55v-8a3.33 3.33 0 013.31-3.32H97.7v-4.16H78.07A7.48 7.48 0 0070.58 47v8a7.48 7.48 0 007.49 7.47h19.44M122 55a3.16 3.16 0 01-1 2.34 3.12 3.12 0 01-2.33 1h-10.73a3.33 3.33 0 01-3.31-3.34V39.5h-4.18V55a7.51 7.51 0 007.49 7.47h10.79a7.48 7.48 0 007.49-7.47V39.5H122zM153 46.12a6.48 6.48 0 00-1.74-4.53 6.64 6.64 0 00-5.08-2.07H133a4.75 4.75 0 00-4.74 4.73v18.19h17.87a6.9 6.9 0 006.91-6.88v-.12a6.52 6.52 0 00-1.88-4.74 6.23 6.23 0 001.84-4.58zm-4.79 1.67a2.62 2.62 0 01-2 .74h-13.73v-4.28a.51.51 0 01.16-.4.52.52 0 01.4-.17h13.13a2.6 2.6 0 012 .77 2.59 2.59 0 010 3.34zm-15.72 4.92h13.69a2.71 2.71 0 012.73 2.73v.12a2.75 2.75 0 01-2.73 2.72h-13.7zM156.54 40.9a4.59 4.59 0 00-1.39 3.35v18.19H177v-4.16h-17.68v-5.57H177v-4.18h-17.68v-4.28a.55.55 0 01.16-.4.52.52 0 01.4-.17H177v-4.16h-17.12a4.54 4.54 0 00-3.34 1.38zM183.42 43.88a.49.49 0 01.39-.17h18.63v-4.18h-18.63a4.59 4.59 0 00-3.35 1.39 4.64 4.64 0 00-1.38 3.35V48a4.75 4.75 0 004.73 4.73h13.76a.66.66 0 01.51.22.63.63 0 01.2.49v4.13a.72.72 0 01-.71.71h-18.49v4.16h18.49a4.85 4.85 0 004.87-4.87v-4.13A4.75 4.75 0 00201 50a4.69 4.69 0 00-3.45-1.44h-13.74a.52.52 0 01-.4-.16.53.53 0 01-.16-.39v-3.74a.47.47 0 01.17-.39z"/></svg>
